<svg width="360" height="97" viewBox="0 0 360 97" fill="none" xmlns="http://www.w3.org/2000/svg">
<path d="M27.8553 96.2253C28.078 96.1023 28.974 96.4015 29.3618 96.3496C28.9222 97.6508 27.0518 96.672 27.8553 96.2253ZM67.6396 1.73789C67.3178 2.05957 66.996 2.38126 66.6742 2.70295C67.5887 2.91197 68.818 2.67586 69.6666 2.98122C69.8054 3.0325 69.4453 3.9639 69.7737 4.00549C70.1023 4.04682 70.0389 2.77397 70.5167 2.63782C71.0526 2.48897 73.5066 3.37573 74.3564 3.35422C77.5349 3.2683 80.7407 2.54139 83.9255 3.07003C80.6376 4.01172 83.9508 4.97014 84.8717 4.56203C85.0758 4.46754 85.0432 2.10122 88.3421 2.69703C90.4385 3.07513 88.5022 6.45812 92.0005 4.76333C89.3104 2.39669 91.9558 2.56256 94.0646 2.48389C94.4281 2.46995 97.3641 2.82552 98.661 2.72071C99.1047 2.68426 99.7808 1.44478 100.369 1.41225C100.774 1.3908 101.081 2.06843 101.682 2.03392C104.486 1.88118 107.244 1.82849 110.052 2.0576C108.411 5.24278 111.341 3.41509 111.472 3.56737C112.142 4.43217 109.115 4.67833 110.312 5.21922C111.985 5.12055 113.657 5.02187 115.33 4.92319C113.957 4.53211 117.147 2.24097 117.735 3.28318C117.476 0.468634 125.358 5.73285 126.558 4.79294C126.808 4.5944 125.172 3.20336 128.967 3.83972C129.378 3.91042 129.222 4.75961 129.438 4.68045C129.567 4.63285 130.348 1.93384 131.181 3.42527C131.485 3.96963 129.54 5.74228 133.81 5.02977C132.11 2.2827 139.732 3.54206 141.134 4.23048C140.854 3.86143 140.574 3.49237 140.294 3.12332C141.68 4.1189 141.93 3.18491 142.242 3.23581C143.501 3.44026 145.231 4.38151 146.404 4.29561C147.775 4.19678 147.78 2.48837 149.38 3.15293C149 2.77598 148.621 2.39903 148.241 2.02208C149.346 2.11287 150.45 2.20365 151.555 2.29443C148.997 4.5559 152.107 2.40233 152.312 2.35364C152.638 2.27133 152.169 3.19716 152.715 3.08188C152.772 3.0629 152.69 2.19105 153.532 2.09313C155.292 1.89152 155.014 2.9877 155.753 2.97531C155.821 2.96966 155.584 2.18422 156.86 1.9984C160.916 1.40687 156.84 2.60031 156.684 2.70888C156.48 2.85207 157.87 6.13444 154.425 4.97056C155.582 5.34108 155.698 6.79358 155.828 6.82964C155.944 6.85928 157.948 6.65468 158.059 6.60466C159.044 6.11142 158.177 5.11883 158.369 4.94096C158.526 4.79757 160.941 6.0911 161.507 3.10556C162.663 5.85937 160.842 5.60707 158.905 6.03035C158.622 6.59545 160.75 7.14494 160.862 7.14343C163.606 7.13841 162.087 4.87324 162.687 3.42528C163.002 2.66767 164.12 4.21304 163.088 2.18194C165.579 1.96755 164.068 3.14452 164.229 3.3187C164.472 3.57462 165.343 2.9925 165.453 3.07004C165.613 3.18483 165.056 3.88805 165.687 4.13575C165.792 4.17177 166.81 2.96165 165.498 2.38324C167.251 2.55527 167.106 1.52341 167.701 3.6029C168.908 -0.331245 168.577 5.92833 169.052 6.14877C170.316 6.72984 169.949 3.64103 170.016 3.4904C170.476 2.52517 173.975 3.58624 174.842 3.14109C174.5 5.36583 172.068 3.16538 171.524 3.59697C169.711 5.03289 174.079 4.70927 172.763 7.50459C173.315 6.73688 173.867 5.96918 174.419 5.20147C175.431 6.99875 173.995 7.78246 176.719 7.12567C177.165 5.57438 174.793 7.37069 175.269 6.14877C175.549 5.43162 177.129 5.2776 177.16 4.89951C177.191 4.4444 175.763 4.98377 175.988 4.28377C176.48 2.77317 181.687 4.21126 177.723 5.03569C178.828 5.00987 179.398 8.0145 180.357 7.07831C180.977 6.47064 177.489 2.32092 182.722 3.08188C182.833 4.50068 180.63 3.50084 180.573 3.60882C180.492 3.76599 180.891 6.96764 180.96 7.12567C181.204 7.64597 186.547 5.93156 187.677 7.54012C187.23 5.68968 191.714 7.20993 192.203 6.6461C192.333 6.49044 191.847 5.35697 191.986 5.23699C192.853 4.52294 195.199 6.54631 196.287 6.59874C197.505 6.65814 197.351 5.67919 197.419 5.68104C197.955 5.73565 197.526 6.39931 197.854 6.39744C198.349 6.39425 201.75 6.52999 201.92 6.39152C201.97 6.34836 201.415 5.23006 202.157 5.01793C202.285 4.98118 202.204 6.30705 204.399 5.73433C207.043 5.0455 202.563 4.08552 203.662 2.69704C205.36 4.67402 205.305 2.71491 205.766 2.86874C205.925 2.92477 207.112 4.59045 208.401 4.48507C207.476 4.75545 206.551 5.02582 205.626 5.2962C206.535 5.58827 208.301 5.22676 209.051 5.55671C209.416 5.71732 209.115 7.08567 209.909 7.04871C210.077 7.03342 210.746 3.69969 208.666 5.19555C208.5 4.00518 209.489 4.78034 209.949 4.44363C210.018 4.39116 210.292 2.40251 210.878 3.63842C211.019 3.9425 209.486 9.74355 213.44 5.54487C213.567 5.40955 213.124 4.68304 213.249 4.53244C213.334 4.43045 214.343 4.72432 214.454 4.62125C214.569 4.51065 214.081 3.71752 214.217 3.56145C214.913 2.75726 215.827 5.90296 214.391 5.66328C214.871 6.05207 215.351 6.44086 215.83 6.82965C215.317 4.45883 216.584 6.16259 217.248 6.08957C221.502 5.62294 218.653 4.08098 219.385 3.28319C220.561 2.00224 219.663 6.0594 221.409 4.84031C221.57 4.72633 219.459 3.00413 223.581 3.9759C222.973 4.043 222.365 4.1101 221.756 4.1772C222.107 6.47031 223.953 4.0199 224.095 3.98774C225.714 3.67288 224.619 4.49954 227.023 3.31871C227.238 3.21269 227.705 3.77862 228.164 3.49633C230.067 2.33333 225.653 2.7906 225.533 1.86223C225.476 1.40734 230.222 1.5219 230.385 1.7379C231.076 2.69539 228.233 2.15962 228.775 3.34831C228.973 3.77038 235.737 2.90351 237.095 3.36608C238.661 3.90435 239.366 7.01337 239.376 3.52001C239.818 6.94905 240.208 4.60948 240.408 4.63309C242.83 4.95052 242.835 4.98512 244.911 4.65677C245.37 4.58541 245.757 5.62582 245.919 5.45014C246.014 5.34403 245.837 4.23062 246.3 3.88709C246.942 3.41713 250.803 4.56231 251.09 5.17779C251.377 5.79328 249.459 5.44471 249.803 6.45665C251.191 6.55894 252.522 6.30856 253.919 6.4152C254.499 6.46254 254.201 7.1708 254.452 7.18489C254.558 7.19359 256.562 6.56989 256.477 6.30863C256.278 5.70113 250.091 6.10949 251.72 4.86992C252.035 4.6304 253.145 6.26254 252.968 4.27785C258.497 4.72782 264.024 5.17779 269.552 5.62776C266.376 7.11221 262.802 5.78461 259.475 5.92379C259.019 5.94098 257.478 5.74955 257.665 6.75268C260.494 7.01238 264.011 6.48972 266.728 7.14344C266.815 7.16507 266.495 8.06634 266.821 8.20916C267.43 8.47573 269.411 7.02215 269.745 7.39803C269.802 7.4856 268.674 8.67374 269.017 9.42881C269.897 11.3665 270.121 7.07483 270.878 7.12568C271.463 7.16683 275.397 9.24192 276.376 7.93089C277.418 6.53348 273.477 7.11962 273.768 5.97708C276.435 4.82889 279.135 6.05499 281.654 5.91195C281.698 5.90831 281.313 5.01296 281.875 4.88768C282.853 4.66967 283.11 5.93969 283.586 6.14286C284.1 6.35914 285.915 6.17714 286.158 6.64019C286.189 6.70091 285.821 7.9606 285.766 7.99602C284.975 8.5152 284.694 6.88024 284.622 6.85925C284.351 6.79726 284.085 7.42349 283.839 7.38619C283.433 7.324 283.209 6.74463 282.673 6.69348C282.303 6.65604 282.66 7.76862 282.303 7.71775C282.173 7.69457 280.761 5.15406 280.629 7.74735C280.588 8.56501 292.132 9.61502 293.286 8.96108C292.296 8.64926 291.306 8.33744 290.317 8.02562C292.326 8.78466 294.741 6.71259 294.912 9.77813C302.364 10.0288 309.817 10.2794 317.27 10.5301C318.601 10.7912 317.871 12.7612 320.061 12.1878C319.495 11.5602 318.929 10.9327 318.363 10.3051C319.486 10.7453 324.458 11.6054 325.263 11.1991C325.367 11.1458 325.512 9.36293 326.754 9.20975C327.857 9.0745 328.034 10.4103 328.623 10.6662C329.118 10.8774 329.674 10.5274 329.821 10.6011C329.934 10.6601 329.978 11.477 330.249 11.6194C331.105 12.0599 330.412 9.75987 331.261 12.401C331.054 12.5016 330.848 12.6023 330.641 12.7029C331.674 13.0852 333.085 14.2842 331.564 14.8758C331.302 14.9779 331.527 14.1876 331.331 14.189C323.689 14.3359 329.792 15.8721 332.47 14.6449C333.158 15.8159 337.012 15.1009 337.14 15.3317C337.319 15.6659 336.659 16.6018 337.524 17.4098C337.706 17.5809 342.859 16.9252 341.004 18.4815C340.621 18.8025 338.15 18.4652 337.554 18.5111C338.955 20.993 342.241 17.4371 342.61 17.5282C344.101 17.915 339.747 19.6792 343.105 19.9675C345.686 20.1888 343.263 18.5317 344.256 17.8243C344.813 17.4274 347.735 19.253 347.656 16.8888C348.659 16.6364 348.072 17.8882 348.195 17.9782C348.317 18.0574 350.288 17.3496 350.928 17.848C351.006 17.9099 350.762 19.1388 350.842 19.2393C350.998 19.4115 352.899 19.1658 352.976 19.0617C353.025 18.9894 352.571 17.9135 352.758 17.6526C352.975 17.3517 354.805 17.6049 354.905 17.2973C355.048 16.8323 352.789 17.1387 353.165 15.9356C354.207 16.2385 355.903 15.4358 356.59 14.4673C356.422 14.7442 355.412 14.784 355.062 14.6863C355.227 12.9243 357.395 12.9483 356.654 14.3429C357.125 13.594 356.803 13.1966 357.068 12.4898C357.138 12.3107 357.807 12.2739 357.936 11.9688C357.953 11.908 357.262 11.2432 357.401 10.8853C357.651 10.2386 359.68 10.3841 359.846 10.5537C360.314 11.0345 358.659 11.6163 358.521 12.3595C358.502 12.4737 359.909 13.9301 359.93 14.0588C360.013 15.4388 358.447 14.4443 358.626 15.6869C359.013 15.9494 359.4 16.2119 359.787 16.4744C358.294 17.7327 355.53 17.0857 354.818 18.517C357.032 18.0911 359.35 18.1414 359.345 21.3648C359.344 22.7223 358.388 23.5182 358.425 23.8633C358.566 25.0984 359.893 23.7567 359.941 23.8219C359.982 23.8971 360 23.9704 360 24.0418C360 24.0418 360 24.0418 360 24.0418C360 24.765 358.109 25.2857 358.015 25.6158C357.855 26.2023 358.697 28.6165 358.696 29.1505C358.666 29.2577 357.32 29.829 357.774 30.7609C358.234 31.7021 359.412 31.7229 359.454 31.8207C359.679 32.3837 357.617 32.8972 357.556 33.2298C357.523 33.3979 358.63 34.4308 358.663 34.7277C358.69 35.0257 357.849 35.6759 357.517 36.6164C357.27 37.3151 357.99 37.8508 357.863 37.9604C357.773 38.033 355.825 38.0211 355.729 38.1439C355.587 38.3256 356.043 39.1607 355.977 39.3695C355.882 39.6698 355.253 39.3684 355.335 39.6773C355.397 39.9076 357.835 42.7864 357.82 43.5554C357.792 44.8669 355.209 41.8492 357.612 47.0248C357.629 47.0588 358.214 46.691 358.23 46.7229C358.591 47.6752 356.716 49.14 359.009 48.8839C354.744 50.5378 358.478 50.8555 357.847 53.0639C357.603 53.9127 355.95 54.2627 355.942 54.3901C356.103 55.467 356.63 54.6318 356.809 55.1598C356.907 55.4549 355.428 56.5934 355.761 57.3327C355.933 57.7137 357.503 57.5781 357.568 57.6524C358.19 58.3533 357.428 59.1083 357.564 59.6062C357.655 59.94 358.602 59.9664 358.627 60.0266C358.667 60.1516 357.38 61.5003 357.112 61.9744C356.909 62.3392 357.673 62.9107 357.531 63.0698C356.675 64.0207 354.852 61.5954 356.608 64.994C356.715 65.2024 357.38 65.1182 357.399 65.1598C357.81 66.1232 356.587 66.2065 356.368 66.9951C355.992 68.3542 357.75 67.5965 356.288 68.5523C357.385 69.441 357.996 69.4039 359.279 69.1562C355.726 69.8473 354.472 73.3655 358.417 73.2769C357.162 73.2221 357.301 75.2077 356.927 75.2426C356.694 75.262 354.875 73.2878 355.709 77.7174C355.813 78.2707 356.919 77.5677 356.573 78.7002C353.92 78.4112 356.516 79.4209 356.519 79.5706C356.485 82.1799 350.003 80.0427 348.889 80.3403C347.597 80.6854 346.448 82.7414 346.167 82.744C345.243 82.7449 346.01 81.701 345.803 81.3172C345.594 80.9369 342.965 82.9368 342.834 82.8269C342.325 82.3857 342.842 81.1487 342.789 81.0863C342.158 80.3282 338.629 81.2969 337.64 81.0093C337.671 81.8118 339.655 81.8755 338.416 83.1644C336.974 84.6671 336.891 81.1294 336.853 80.9738C330.244 81.0073 323.635 81.0409 317.026 81.0744C317.108 82.9566 321.429 81.5372 321.527 81.7849C322.105 83.252 314.805 83.225 313.91 82.5605C314.59 82.967 315.27 83.3736 315.951 83.7801C314.789 85.944 312.218 83.1327 310.538 84.088C309.996 84.3977 311.038 85.2329 311.016 85.2899C310.406 86.1303 309.428 85.4828 310.159 84.3544C308.67 85.4356 308.888 84.2427 307.745 84.1531C307.686 84.1494 308.177 85.0226 307.273 85.3846C306.849 85.5535 304.59 85.5563 304.287 86.3201C304.163 86.6417 305.309 90.0279 305.45 87.1135C307.908 88.5341 306.236 85.7854 307.19 85.8524C307.337 85.8676 307 87.4944 309.404 86.7286C308.946 89.6622 306.178 87.4686 305.703 87.8239C304.724 88.5543 308.757 90.0692 309.497 87.7825C309.152 90.0717 309.783 88.091 310.683 88.1851C311.667 88.2872 311.238 88.9688 311.77 88.9725C313.226 88.9896 312.623 87.3737 313.823 88.8304C312.653 84.3206 315.878 88.2354 316.818 89.4166C315.289 89.6455 313.76 89.8745 312.23 90.1034C312.318 90.3402 312.405 90.577 312.493 90.8139C312.09 90.7803 311.687 90.7468 311.284 90.7132C311.349 90.4862 311.413 90.2593 311.478 90.0323C309.401 91.508 308.894 89.8495 308.724 89.831C306.544 89.6386 304.025 89.6529 301.821 89.6475C301.49 89.6467 301.717 91.1228 299.306 89.9672C298.537 89.5992 299.263 88.4509 298.392 88.6232C297.301 91.7435 297.322 89.2548 296.998 89.2508C296.067 89.2512 295.499 90.0242 295.413 90.0323C294.264 90.1529 292.58 90.0239 291.318 90.1389C291.294 90.1507 291.951 91.1094 291.131 90.8257C290.843 90.7244 288.26 86.6321 286.002 87.966C286.589 88.2423 287.176 88.5186 287.764 88.7949C287.073 88.4088 282.234 89.4401 283.417 90.5356C284.142 91.2051 285.913 88.5673 286.107 91.104C284.497 90.3448 275.603 91.4802 274.911 90.8908C274.815 90.8067 275.405 89.9837 275.272 89.8784C275.17 89.7982 273.133 89.9932 272.862 89.6771C272.701 89.4893 273.601 88.9849 273.528 88.6883C273.464 88.4769 270.92 88.1245 270.775 89.1561C271.399 88.742 273.155 89.1036 272.234 89.9731C272.116 90.0811 271.502 89.4157 271.358 89.5528C270.023 90.8167 274.013 90.5133 274.631 90.5237C272.124 91.838 268.247 90.2887 265.343 91.1454C264.17 90.2868 267.083 89.8319 265.755 89.1206C263.001 87.646 265.022 90.3079 264.937 90.4172C264.253 91.2834 261.922 86.6409 261.921 90.1744C260.922 89.6425 261.246 89.197 259.836 89.6593C260.022 89.904 260.207 90.1488 260.393 90.3935C258.828 92.4403 255.516 87.2765 255.765 86.8826C256.432 85.8283 258.156 87.4727 258.304 87.4332C258.522 87.3747 259.124 83.7891 261.51 86.995C262.487 84.5902 257.729 85.3719 259.894 83.7328C258.432 84.0018 252.416 82.3279 251.55 83.3835C251.447 83.5213 251.928 85.9174 250.442 84.6978C249.736 84.1171 251.437 84.0892 251.115 83.5433C250.121 81.868 236.61 82.9397 234.043 83.0282C233.877 83.0309 233.938 82.2872 233.774 82.2941C233.271 82.3148 231.438 83.4238 230.538 83.0815C232.403 84.458 228.782 84.5651 227.861 84.4136C226.462 84.183 226.549 82.8743 225.945 82.596C223.617 81.5233 220.009 84.6303 218.201 81.7257C218.3 84.6085 215.072 80.3123 213.604 80.287C212.454 80.2663 210.786 82.174 212.338 83.3361C210.353 83.2033 208.264 83.7412 206.401 83.9163C206.094 83.9457 206.517 83.0932 205.992 83.1703C205.945 83.1835 205.879 84.0189 205.428 84.1058C201.705 84.834 203.516 83.0587 202.82 82.5368C202.43 82.2446 202.142 82.0992 201.931 82.0513C204.101 81.888 206.604 81.5599 207.273 81.5362C206.703 79.6914 202.464 81.8905 201.223 81.3941C201.18 81.3761 201.33 80.3593 201.286 80.3521C201.285 80.3521 201.284 80.3521 201.283 80.3521C200.818 80.2742 197.855 80.6494 198.465 81.8618C198.629 82.1858 199.993 82.1851 201.61 82.075C201.172 82.3024 201.499 83.4414 201.422 83.49C200.485 84.0531 198.19 82.9414 197.376 82.7914C197.19 82.7585 197.203 83.4883 197.173 83.49C196.432 83.3243 196.736 81.2405 195.977 83.3894C194.636 80.7924 198.49 83.0038 198.218 81.3171C198.009 80.0186 189.45 80.716 189.476 82.7618C189.446 82.543 189.328 82.2714 189.087 81.9625C188.552 81.276 186.169 81.4908 185.758 81.8678C185.689 81.942 185.716 83.9276 185.63 83.9459C185.415 83.9915 182.503 82.4347 181.416 83.6084C182.003 83.8867 182.59 84.165 183.178 84.4432C179.631 84.4605 180.179 85.0514 181.361 85.6451C181.42 85.6505 181.477 85.7259 181.534 85.7339C182.45 86.1729 183.624 86.5957 183.642 86.7523C183.709 87.35 177.692 87.6826 178.849 85.8405C179.01 85.5887 181.794 86.409 180.416 85.0945C180.175 84.8642 178.387 85.2394 178.293 85.0945C177.664 84.1313 181.569 82.8516 181.092 81.4829C180.144 82.786 178.928 82.0997 177.841 82.4361C177.346 82.5882 177.225 83.5838 177.164 83.6025C176.252 83.8624 176.764 82.8186 176.46 82.8447C176.296 82.8626 174.499 85.0841 174.839 82.0217C168.919 84.2745 173.201 84.2723 176.833 84.0998C175.686 85.2152 173.436 84.6757 172.426 84.9347C172.064 85.0286 172.279 86.0505 171.667 86.255C170.407 86.6754 164.395 85.5015 162.828 85.2248C163.79 84.8637 163.509 83.7506 162.766 83.8275C162.024 83.9049 162.648 85.3907 162.503 85.5504C162.347 85.7158 158.864 85.0145 158.284 85.207C160.907 84.6689 160.315 83.5588 158.089 83.4427C158.411 83.1229 158.733 82.8032 159.054 82.4835C157.75 82.9328 155.006 81.2395 154.252 81.7434C154.134 81.8244 154.559 82.7577 154.492 82.8032C153.831 83.1998 151.58 82.248 151.475 82.5664C151.386 82.8315 152.346 83.614 151.99 83.9992C151.916 84.0803 150.99 82.8187 150.079 83.1289C149.74 83.243 149.944 84.1256 149.859 84.1768C149.149 84.6014 149.568 83.115 148.27 83.3538C147.319 83.5306 146.611 84.9838 145.297 84.5024C149.611 86.3549 145.984 85.5811 144.18 86.1425C143.891 86.232 144.139 87.8344 142.411 87.0542C146.088 84.1568 141.363 85.5228 140.397 85.4912C140.344 85.4814 140.326 84.4246 139.852 84.4077C139.812 84.4087 139.869 85.1228 139.429 85.1774C135.251 85.6937 137.922 84.8869 137.128 84.1827C136.79 83.8827 134.759 84.8925 134.211 84.9169C134.086 84.9194 134.143 84.1774 133.657 84.2064C132.795 84.2597 132.024 85.0496 131.455 85.1123C131.389 85.1159 131.386 83.9451 130.309 84.3248C130.006 84.431 129.665 84.8467 130.096 85.1833C131.523 86.2905 134.23 84.3743 135.843 85.4794C137.314 86.4857 132.676 86.5806 132.434 86.5865C132.346 86.5902 133.252 86.0088 132.331 85.8938C131.546 85.798 130.109 87.8202 128.938 87.3799C128.849 87.3472 127.913 85.6326 127.956 85.5326C127.995 85.4596 129.432 85.0874 129.224 84.5913C129.199 84.5347 128.285 84.5462 128.166 84.1768C128.02 83.7271 127.627 79.3141 127.432 79.2035C126.931 78.9301 127.257 79.9366 126.933 79.8666C126.239 79.719 123.831 78.4139 123.752 79.9436C124.15 80.0343 124.548 80.1251 124.946 80.2159C122.733 80.3732 123.676 81.0243 123.362 81.3112C123.025 81.6216 123.12 80.2771 122.374 80.1508C122.211 80.123 119.09 80.4037 119.146 80.9678C120.873 80.0699 120.233 81.7315 120.312 81.7612C120.615 81.8694 121.001 80.9374 121.407 80.956C124.261 81.1019 121.383 82.5729 122.056 82.9512C122.288 83.0786 122.75 82.2829 122.849 82.3237C123.169 82.4554 123.174 83.4973 123.387 83.413C123.885 83.2175 123.304 81.7432 123.343 81.6665C123.788 80.7438 125.531 81.8918 124.446 83.4959C125.097 84.0741 125.174 82.1244 125.69 82.9039C126.717 84.4472 125.179 84.0508 124.762 84.3071C123.267 85.2315 122.823 84.4832 120.706 84.7393C119.944 84.8296 119.041 85.7767 118.688 85.8287C118.465 85.8614 116.361 82.5663 116.3 87.7233C115.482 87.2243 114.199 83.826 113.357 83.9814C112.6 84.1232 112.841 85.9476 112.77 86.0181C112.662 86.129 111.747 85.9853 111.438 86.2431C111.076 86.5477 111.257 87.2441 110.681 87.5279C109.25 88.2323 109.288 86.37 109.141 86.249C107.433 84.8502 108.181 87.4989 107.802 87.7114C107.449 87.9067 102.506 86.8872 101.465 87.5575C101.889 87.1845 102.312 86.8115 102.736 86.4385C101.978 85.2769 101.175 87.1715 101.16 85.0886C101.007 88.4514 99.4426 86.2036 98.9727 86.2905C98.7876 86.3262 98.8021 86.8993 98.5704 86.924C97.6651 87.0245 95.624 86.5683 95.133 86.8589C93.0095 88.1099 98.4394 90.1908 98.867 90.3165C98.0113 90.2794 93.17 91.0326 95.3953 92.6492C95.7393 92.8987 96.3488 91.3938 96.542 91.3349C97.8497 90.9474 96.8213 92.296 96.9238 92.4243C97.0981 92.6313 97.9587 91.3276 98.1858 91.4829C98.2616 91.5326 97.7737 92.7538 99.0208 92.7795C98.4074 93.9633 94.9021 92.9988 94.4422 93.2768C94.2784 93.3761 95.3053 95.9057 92.3054 93.4485C92.3402 93.6834 92.375 93.9182 92.4098 94.1531C90.7394 94.2498 89.069 94.3465 87.3986 94.4432C87.5801 93.9021 88.518 92.8153 87.3368 93.0459C86.6567 93.1794 87.1599 94.3845 87.0978 94.4195C86.4876 94.7512 75.6862 94.3502 73.5929 94.4846C72.8808 94.5283 70.896 95.4968 70.7447 95.5148C69.8397 95.6118 66.6351 94.9814 65.9958 95.1181C65.5966 95.2059 65.9761 96.2133 65.6195 96.1661C65.288 96.1208 65.6314 95.147 65.533 95.1063C64.7175 94.7534 58.5226 96.0306 57.0515 95.1122C57.9506 95.3879 62.4372 93.4424 62.347 92.7558C62.3275 92.6617 61.2371 91.9209 61.0121 92.2822C60.6405 91.4391 59.3646 94.006 58.6706 93.5018C58.5922 93.4445 58.9012 92.0047 57.6627 91.7434C57.236 91.6541 56.1188 92.7764 54.9943 91.5184C53.3665 92.1229 44.8081 90.2556 44.2208 91.8026C44.2035 91.8843 45.4086 92.4169 44.5944 93.0518C43.5119 93.8957 44.484 91.0531 43.2225 90.8079C43.0323 90.7706 39.5224 91.0583 39.4074 91.2342C38.3444 92.8296 41.4115 93.4762 41.3685 93.6617C41.2616 94.1287 38.7131 94.4112 38.6096 94.3011C38.511 94.1865 40.5893 92.0726 38.0918 92.8742C38.3779 93.1268 38.664 93.3794 38.9501 93.6321C37.7756 94.124 37.6636 92.6616 37.3791 92.5723C36.4945 92.2894 35.5376 94.5108 34.1203 91.7671C33.7455 91.0389 34.3677 90.2303 34.3208 90.1211C33.8706 89.1411 33.2962 91.7628 32.6193 89.8073C32.5683 89.6615 34.1437 88.49 31.3902 88.487C31.5797 88.6745 31.7692 88.862 31.9587 89.0495C31.5704 89.4681 28.7824 89.7168 28.4074 89.6179C27.3117 89.3287 28.2672 87.9828 27.1659 88.1436C27.8722 89.9881 24.5233 90.2288 24.7159 88.641C24.2482 90.6352 21.4033 89.0968 20.066 89.0495C19.2221 89.0211 17.501 89.8913 17.2329 89.7896C16.9062 89.6648 17.0055 88.3044 16.4157 88.0015C16.2476 87.9151 14.492 88.9124 12.9509 87.5042C12.6523 87.2328 12.025 84.9252 12.5801 84.3485C13.5303 83.3616 15.3277 85.2206 15.3048 83.8571C15.2778 82.3984 12.8569 83.2659 12.2052 83.0756C9.19684 82.1951 10.934 80.6445 10.8567 80.1745C10.656 79.0338 9.01224 79.0692 8.94365 78.9666C8.65939 78.5111 9.82421 77.6083 9.84179 76.9122C9.86302 76.0058 8.27858 74.3699 8.63878 74.0644C9.1544 73.6305 10.6105 74.9939 10.7028 74.9288C11.9046 74.0494 10.2573 71.9553 9.80334 70.9264C9.66571 70.6099 10.2141 70.0897 10.1 69.9969C8.35814 68.5883 9.73279 72.94 8.57424 72.6493C7.54057 72.3903 8.87053 71.0141 8.83104 70.9383C8.78001 70.8549 7.54411 70.7799 7.35063 70.2929C7.25528 70.0491 10.4676 67.3723 10.3334 66.1721C9.30849 66.4366 8.28356 66.7011 7.25862 66.9655C7.17827 65.4006 8.65247 66.5526 8.80495 66.3912C9.11191 66.0675 8.25597 65.2756 8.29271 64.7808C8.31242 64.4661 9.31701 63.3432 8.40944 62.8803C8.09753 62.7204 7.44295 63.8176 6.30693 62.6967C10.2604 61.2652 7.52072 60.3855 7.40419 59.8311C7.29004 59.2769 9.17747 57.9723 6.88646 58.203C6.78713 55.1575 6.93585 57.2403 7.58684 56.7051C8.38433 56.0471 6.54119 55.0443 9.4559 55.8051C9.29008 54.3793 6.94732 54.4802 6.82329 54.3664C6.71619 54.2633 7.23694 53.562 7.05126 53.3244C4.855 50.5693 6.3635 51.8274 5.7274 50.068C5.67083 49.9108 3.59502 49.2585 5.17534 49.0023C8.05444 48.5365 9.25772 50.557 9.74154 46.2374C7.61196 44.361 5.03168 47.1492 4.38432 47.1965C3.39345 47.2646 4.4199 46.3836 4.2978 46.1367C4.25539 46.057 3.40152 46.1297 3.39005 46.0598C2.7812 42.7651 7.19128 46.0051 8.57973 45.4322C8.20757 44.9388 7.83541 44.4454 7.46325 43.952C7.96816 43.9323 8.47308 43.9125 8.97799 43.8928C6.57258 42.901 8.89318 43.5173 9.49298 40.8496C9.62763 40.2502 8.04736 41.2781 9.85003 39.6122C8.52047 39.2276 8.94455 38.6826 7.74065 39.4346C7.77172 38.3653 10.4804 37.1591 11.5488 36.6104C7.77451 35.4088 9.92685 39.3309 6.66399 37.2558C6.05893 38.5798 7.61634 38.322 7.48934 38.5405C7.0337 39.3263 5.96555 38.0786 4.67683 40.8318C4.467 41.2839 5.3549 42.6752 4.041 42.608C3.89567 42.5985 3.05847 41.4094 3.07008 41.3232C3.18107 40.392 4.00954 40.741 4.04374 40.3523C4.07584 39.9843 3.15154 40.2056 3.14835 40.1036C3.11995 38.9369 3.91955 39.6577 3.80342 39.2925C3.55262 38.4981 0.227932 35.9876 4.56697 36.7229C0.962936 38.0419 4.10554 38.0111 5.50905 37.5044C5.86697 37.3774 5.95761 36.6806 6.46761 36.4387C7.12363 36.1255 7.89146 36.46 8.23092 36.3321C8.59601 36.1912 6.52159 34.544 9.52182 35.0355C7.99491 33.3971 5.29782 35.1439 3.79792 33.9935C0.771831 31.6688 5.90785 31.1697 6.44289 30.9444C6.58544 30.8833 6.10754 29.9422 6.20256 29.8846C6.35795 29.7961 9.27285 30.2312 9.56027 29.4524C9.84691 28.6743 8.4926 29.4882 8.40258 28.6768C8.34156 28.1305 11.858 27.1615 9.9544 26.7881C8.6424 26.5321 6.22402 28.7278 5.81667 26.3677C7.74615 26.1723 9.67562 25.977 11.6051 25.7816C10.549 24.8836 9.49298 23.9857 8.43691 23.0877C10.6025 22.8029 12.4747 23.8167 14.5316 22.5312C9.58906 19.6537 16.1364 20.2348 16.2084 19.8846C16.2325 19.6752 14.2871 17.3397 13.974 16.9125C15.6979 16.014 20.9361 15.575 17.8714 12.6911C18.4277 13.3422 19.7747 11.7348 19.757 11.6135C19.5859 10.3394 16.6479 11.1656 17.1271 10.0149C17.6824 8.67958 18.4605 10.4912 19.3148 10.3465C23.6984 9.59227 22.4958 2.94119 26.8912 3.99364C26.8038 3.75682 26.7164 3.51999 26.6289 3.28317C31.4066 3.66012 36.1843 4.03706 40.962 4.41401C42.8313 2.3829 47.8062 1.14609 50.2496 1.37081C50.7416 1.41457 53.1573 2.48054 53.3395 2.66742C53.6771 3.02559 51.821 3.16225 52.6597 3.83379C52.8368 3.97163 56.9265 4.41952 56.6341 3.28317C56.1758 3.15142 54.7416 3.72263 54.5068 3.45487C52.8579 1.5437 65.4659 3.07052 66.0906 2.30035C65.8113 1.93129 65.5321 1.56224 65.2529 1.19319C66.0485 1.37475 66.844 1.55632 67.6396 1.73789ZM31.0812 93.0045C30.6037 94.1447 29.407 93.2883 28.6999 93.6084C27.7229 94.0566 26.0622 98.4473 26.7773 94.0465C28.2119 93.6992 29.6465 93.3518 31.0812 93.0045ZM52.0486 94.7037C51.0866 94.0912 51.8328 91.6334 52.6213 92.6552C52.7088 92.7713 53.3502 95.528 52.0486 94.7037ZM41.9631 93.5373C42.0036 93.5048 42.835 93.5698 42.864 93.6084C43.6096 94.5952 41.1031 94.3935 41.9631 93.5373ZM90.6835 92.2762C89.6235 92.3823 90.3912 94.6167 91.0502 93.6972C91.0916 93.6388 90.7533 92.271 90.6835 92.2762ZM89.9296 92.217C89.1063 90.2162 87.4483 94.2713 88.7664 93.863C88.8943 93.8217 89.9677 92.3145 89.9296 92.217ZM48.6195 93.7268C48.7278 92.9599 49.7201 93.3302 50.1439 93.5136C50.1323 94.2138 49.0351 93.6411 48.6195 93.7268ZM73.7796 93.5136C73.8217 92.9108 70.3726 92.9441 70.1377 93.7386C70.682 93.4015 73.74 94.0554 73.7796 93.5136ZM82.625 92.667C82.5376 92.5628 81.3461 92.7212 81.3808 93.2531C81.9625 93.9509 83.0187 93.1387 82.625 92.667ZM100.206 92.7025C100.271 92.5689 99.3783 89.1838 101.493 91.4118C101.803 91.7381 100.694 92.6225 100.805 92.744C101.036 92.9808 101.218 93.0913 101.365 93.111C100.38 93.3916 99.3573 93.5236 99.2584 93.3183C98.7937 92.3485 100.177 92.7583 100.206 92.7025ZM109.436 90.1803C109.639 89.6282 110.934 89.9234 111.229 90.1507C111.28 90.1935 111.059 91.6447 111.643 91.5362C112.111 91.4466 111.411 89.9603 112.324 90.1981C113.246 90.4368 112.014 91.4961 112.095 91.5717C112.203 91.6708 113.629 91.0034 113.585 91.8677C113.552 92.508 112.023 92.0751 111.645 92.2111C111.162 92.386 111.748 93.4527 110.94 93.2235C110.431 93.0804 110.713 91.2046 110.606 91.1099C110.516 91.0335 108.74 92.113 109.439 90.1863C109.438 90.1843 109.437 90.1823 109.436 90.1803ZM101.631 93.0282C101.557 93.0915 101.47 93.1252 101.365 93.111C101.454 93.0856 101.543 93.056 101.631 93.0282ZM33.8607 92.1815C34.3608 92.76 32.8765 93.5018 32.3144 92.744C32.3047 92.1328 33.7811 92.0914 33.8607 92.1815ZM102.545 91.5006C104.007 91.9705 102.932 92.6168 101.631 93.0282C102.044 92.6751 102.053 91.3437 102.545 91.5006ZM61.0121 92.2822C61.0738 92.4221 61.1129 92.6402 61.1179 92.9986C60.9557 92.6066 60.9412 92.3961 61.0121 92.2822ZM64.4248 92.9216C65.5946 91.83 63.2177 91.874 63.2327 92.6552C63.2398 92.95 64.3779 92.965 64.4248 92.9216ZM92.0431 92.3828C91.9361 92.276 93.5986 88.9797 91.1848 91.4533C92.4731 91.8418 91.1139 92.2007 91.134 92.4894C91.1865 93.3191 93.3506 92.5215 93.8297 92.8801C94.2049 91.3957 92.3964 92.7348 92.0458 92.3828C92.0449 92.3828 92.044 92.3828 92.0431 92.3828ZM126.071 90.9796C125.777 91.8495 124.847 91.5696 124.219 91.5184C124.513 90.6485 125.443 90.9284 126.071 90.9796ZM290.334 91.104C286.033 91.9082 285.476 88.3658 289.412 89.7659C289.489 89.7953 290.596 90.7449 290.334 91.104ZM253.42 90.1863C253.015 88.6424 254.356 88.3941 255.237 89.0317C255.437 89.1751 256.174 90.739 255.332 91.0448C255.359 89.1734 254.057 88.4585 253.42 90.1863ZM103.371 90.5119C103.797 89.4823 105.108 90.2152 105.799 90.3698C105.378 91.2175 103.982 90.8342 103.371 90.5119ZM276.2 89.2567C275.747 89.1398 275.441 90.483 275.519 90.5948C275.87 91.1074 276.717 90.0214 276.2 89.2567ZM99.1389 90.352C99.079 89.7368 100.816 89.1445 100.937 90.6658C100.565 90.5557 99.1819 90.7381 99.1389 90.352ZM124.887 90.5178C124.617 90.205 126.014 89.6449 126.436 89.9553C126.402 90.6102 125.064 90.7212 124.887 90.5178ZM268.901 89.7126C268.495 89.5959 267.481 89.5604 267.369 90.1034C267.229 90.7821 268.717 90.5508 268.901 89.7126ZM344.441 88.5403C344.492 88.7843 342.921 90.5424 342.223 90.0975C340.897 89.2462 344.385 88.3681 344.441 88.5403ZM280.492 88.564C281.772 89.8415 280.351 88.6043 280.407 89.9494C281.268 89.9979 283.412 90.0642 281.938 88.7416C281.651 88.4858 280.894 88.6511 280.492 88.564ZM279.311 88.114C279.174 88.5498 278.251 89.9235 279.049 89.8251C279.418 89.7775 280.012 88.2511 279.311 88.114ZM334.708 89.1383C333.561 87.9475 338.821 88.5864 338.972 88.7949C339.052 88.9051 339.105 89.0089 339.134 89.0969C339.328 88.7195 340.321 88.6514 340.436 89.6061C340.138 89.5272 339.325 89.6112 339.231 89.5054C339.19 89.4604 339.159 89.4181 339.139 89.3751C338.788 90.2038 334.928 89.3641 334.708 89.1383ZM325.992 87.9127C327.305 86.156 327.538 89.1428 327.424 89.239C325.995 90.4614 326.927 88.2587 326.883 88.1555C326.784 87.9839 325.768 89.0059 325.996 87.9127C325.995 87.9127 325.993 87.9127 325.992 87.9127ZM332.922 88.6469C332.976 88.608 334.078 88.7004 334.123 88.7476C335.027 89.7514 331.907 89.4943 332.922 88.6469ZM116.393 88.0903C117.182 88.3873 116.408 89.4862 115.883 89.0909C115.84 89.052 115.697 87.828 116.393 88.0903ZM278.681 88.4101C278.498 88.2024 273.817 87.4194 274.098 89.0791C274.496 88.8832 279.816 89.7375 278.681 88.4101ZM243.699 88.0075C244.524 88.0203 243.624 89.5856 243.184 89.0021C243.02 88.7854 243.491 88.0052 243.699 88.0075ZM96.7974 88.9311C95.9404 89.791 96.1176 86.9061 96.8606 87.895C96.8898 87.9337 96.8311 88.8975 96.7974 88.9311ZM250.293 88.9074C247.447 89.856 248.121 84.8935 251.822 86.5688C251.706 86.7898 251.59 87.0108 251.474 87.2319C255.746 87.9763 251.767 87.5816 250.72 87.8595C250.323 87.9651 250.656 88.7934 250.296 88.9133C250.295 88.9114 250.294 88.9094 250.293 88.9074ZM239.358 87.9127C236.616 84.3905 241.85 86.6842 243.351 86.2254C241.896 87.6799 240.001 87.4597 242.578 88.9489C238.81 89.2368 240.379 87.834 240.228 87.7174C240.05 87.5866 239.475 88.064 239.358 87.9127ZM246.59 87.8891C246.748 87.7863 247.942 88.5033 248.372 88.3864C247.771 89.5896 245.537 88.5878 246.59 87.8891ZM316.854 88.7298C316.953 87.787 317.198 87.0926 318.141 87.445C317.85 87.9187 317.248 88.3262 316.854 88.7298ZM30.1748 88.043C29.5258 87.9754 28.2336 87.6201 28.6298 88.6114C28.6732 88.6958 30.1728 88.5993 30.1748 88.043ZM265.085 87.6463C264.947 87.5304 261.378 87.4526 262.61 88.493C262.982 88.8067 266.23 88.6735 265.085 87.6463ZM283.57 87.7647C283.271 87.7549 282.057 87.9325 282.032 88.1555C281.949 88.9263 283.439 88.5025 283.57 87.7647ZM26.9009 87.0779C26.8154 86.9801 24.8331 87.1534 25.051 87.6108C25.4647 88.4758 27.1938 87.4148 26.9009 87.0779ZM119.265 85.882C119.43 85.8471 119.649 86.8712 119.707 86.8825C119.841 86.8972 122.875 86.5033 121.716 87.818C121.523 88.0383 117.158 87.5334 116.591 87.4036C116.371 85.9977 118.235 87.3351 118.689 87.1904C118.769 87.1629 118.82 85.9868 119.263 85.8879C119.264 85.8859 119.264 85.8839 119.265 85.882ZM321.764 87.7351C321.897 86.8414 325.464 86.2496 325.422 87.3325C324.203 87.4667 322.983 87.6009 321.764 87.7351ZM319.952 87.5871C319.191 86.9549 320.973 86.7457 321.499 87.0247C321.504 87.6259 320.063 87.6796 319.952 87.5871ZM276.806 84.4255C276.448 84.6441 277.55 85.9482 277.303 86.2017C277.145 86.3596 276.345 85.8707 276.089 86.2786C276.017 86.4083 276.834 87.6341 277.07 87.5812C277.405 87.5105 277.08 86.5458 277.446 86.5392C278.662 86.5184 279.74 87.2065 280.879 87.1904C280.982 87.1871 280.184 86.5058 281.062 86.5155C281.198 86.5156 282.013 87.5303 283.063 87.3799C285.382 84.2374 287.085 87.3229 290.028 86.1898C289.917 85.8939 287.716 85.1002 287.586 85.0708C285.126 84.5541 280.719 84.4973 278.142 84.4906C277.481 84.4879 277.802 85.153 277.517 85.1774C277.292 85.1954 277.56 83.9638 276.806 84.4255ZM30.5195 87.3621C30.2102 86.132 29.1251 86.9106 28.4321 86.847C28.676 87.9566 29.8423 87.0895 30.5195 87.3621ZM303.942 86.6339C303.595 86.6814 302.518 86.3109 302.429 86.6813C302.314 87.1649 303.869 87.47 303.942 86.6339ZM136.368 86.2313C136.401 86.1977 137.237 86.2636 137.268 86.3023C138.015 87.2896 135.508 87.0873 136.368 86.2313ZM156.359 86.4681C156.992 86.3162 157.632 85.9318 157.845 86.9299C157.441 86.7771 156.284 87.1633 156.359 86.4681ZM183.938 86.4385C183.808 85.1315 185.715 85.9779 186.075 86.0951C185.942 86.676 184.034 87.3803 183.938 86.4385ZM316.717 84.6268C317.883 84.7041 317.637 82.7243 318.377 83.6203C318.498 83.7717 318.888 87.8944 317.607 86.3497C317.376 86.072 318.278 85.0923 316.717 84.6268ZM252.425 86.6102C252.721 85.7455 253.648 86.0022 254.274 86.0714C254.134 86.7138 252.87 86.5485 252.425 86.6102ZM23.3207 86.0892C22.7738 84.8685 20.2468 85.774 20.8721 86.5806C20.961 86.6858 22.9662 86.043 23.3207 86.0892ZM106.336 86.5687C107.376 85.6075 105.223 85.3098 104.543 86.249C104.851 86.1875 106.266 86.632 106.336 86.5687ZM177.314 85.728C177.364 85.6886 178.466 85.7814 178.515 85.8287C179.419 86.8325 176.3 86.5754 177.314 85.728ZM149.785 84.8814C150.182 84.0903 152.793 84.7286 153.379 85.5208C152.815 86.6775 149.292 85.8694 149.785 84.8814ZM311.919 85.1893C312.75 85.1483 313.54 85.3919 314.304 85.734C314.143 86.4 312.006 85.6867 311.919 85.1893ZM181.361 85.6451C181.42 85.6505 181.477 85.7259 181.534 85.7339C181.475 85.7057 181.417 85.6735 181.361 85.6451ZM293.298 84.7215C292.601 84.4585 292.746 85.6788 292.789 85.7162C293.313 86.1114 294.087 85.0184 293.298 84.7215ZM29.723 85.5504C29.4813 84.4491 28.3087 85.3033 27.6342 85.0412C27.8299 85.911 29.1796 85.6659 29.723 85.5504ZM236.422 85.657C235.546 84.4629 239.109 83.0758 239.86 83.8453C239.916 84.583 236.55 85.8204 236.422 85.657ZM103.108 84.9169C103.038 84.0539 101.542 85.0953 101.859 85.503C102.061 85.7625 103.15 85.453 103.108 84.9169ZM241.653 84.3485C241.987 84.0852 242.768 84.9367 242.493 85.4557C242.14 86.1209 241.566 84.4239 241.653 84.3485ZM271.693 83.6558C271.547 83.524 269.578 84.4097 270.391 85.2899C270.956 85.9016 271.046 84.6542 271.178 84.6505C271.327 84.6544 274.487 86.181 271.693 83.6558ZM216.462 84.9051C217.205 84.5732 218.103 84.9584 218.881 84.9347C218.564 85.4683 216.778 85.6139 216.462 84.9051ZM108.878 84.686C108.698 84.337 103.784 84.1268 106.575 85.2011C106.738 85.2618 109.426 85.7429 108.878 84.686ZM316.717 84.6268C316.57 84.617 316.4 84.5759 316.203 84.4906C316.399 84.5242 316.569 84.5827 316.717 84.6268ZM303.473 84.4965C303.741 83.8683 302.389 83.7004 301.99 84.0347C301.867 84.8022 303.436 84.5844 303.473 84.4965ZM218.94 84.0584C219.387 83.6989 220.201 84.0825 220.755 84.0406C220.661 84.6246 219.133 84.6517 218.94 84.0584ZM187.484 83.4012C188.374 83.7483 189.468 83.5887 189.485 82.8743C189.504 82.9859 189.547 83.1045 189.618 83.2236C189.691 83.3415 190.644 83.0093 191.058 83.2532C193.536 84.7016 181.486 84.1039 188.47 82.0868C188.142 82.525 187.813 82.9631 187.484 83.4012ZM146.251 83.1999C145.746 82.3303 144.332 83.42 144.699 83.7624C144.955 83.997 146.757 84.0754 146.251 83.1999ZM165.678 82.6848C165.527 82.5296 164.146 83.1386 164.111 83.5966C164.904 84.0792 166.365 83.4058 165.678 82.6848ZM142.37 82.1816C142.053 82.0503 141.649 83.4525 141.686 83.5137C142.008 84.0256 142.902 82.9623 142.37 82.1816ZM314.301 80.8494C313.83 80.4479 312.327 81.4628 312 82.3888C311.939 82.2098 311.774 81.9763 311.474 81.6961C311.474 81.6961 311.475 81.6961 311.476 81.6961C311.07 81.3221 298.923 80.9134 307.071 82.6967C307.326 82.7538 306.977 81.9226 308.016 82.0691C308.084 82.0797 308.118 82.7584 308.33 82.7914C308.818 82.8631 311.414 83.2902 311.936 82.744C311.941 82.8698 311.975 82.9895 312.046 83.0993C312.686 84.078 314.667 81.159 314.301 80.8494ZM168.415 82.5605C168.137 82.309 167.258 82.5478 167.166 83.1466C167.603 83.4401 169.06 83.1471 168.415 82.5605ZM108.726 82.2289C108.16 81.7364 106.725 82.6572 107.159 83.1466C107.425 83.4477 109.379 82.7944 108.726 82.2289ZM159.606 82.8802C162.852 83.5881 160.381 82.823 160.878 81.9447C160.454 82.2566 160.03 82.5684 159.606 82.8802ZM329.322 83.117C328.805 82.915 329.413 81.1821 329.983 82.1224C330.162 82.421 329.612 83.2268 329.322 83.117ZM352.692 82.5783C352.25 81.0417 354.407 81.9445 353.566 82.9986C353.527 83.0341 352.723 82.6367 352.692 82.5783ZM336.362 81.9507C336.011 82.9969 335.782 83.121 334.792 82.8624C336.257 82.5677 334.898 81.6424 336.362 81.9507ZM189.476 82.7618C189.481 82.8041 189.486 82.8353 189.485 82.8743C189.479 82.8358 189.476 82.7993 189.476 82.7618ZM139.319 82.4539C138.913 81.5676 137.774 81.6329 138.113 82.525C138.146 82.6076 139.152 83.1088 139.319 82.4539ZM312 82.3888C312.054 82.5476 312.026 82.6502 311.936 82.744C311.932 82.6256 311.955 82.5138 312 82.3888ZM145.433 81.7316C145.392 82.3928 147.125 82.65 147.195 82.5723C148.189 81.4256 146.148 81.6918 145.433 81.7316ZM97.2671 81.2994C97.1777 81.3684 97.7541 83.0753 98.1076 82.4065C98.3812 81.8877 97.6018 81.0368 97.2671 81.2994ZM339.722 81.5244C340.271 81.5255 341.044 81.5248 341.186 82.3355C340.818 82.2111 339.711 82.1193 339.722 81.5244ZM351.847 81.4652C351.198 82.4183 349.717 82.4156 348.771 82.2585C348.753 81.0039 351.238 81.7602 351.847 81.4652ZM315.79 81.3172C315.745 81.2661 314.369 80.8918 314.557 81.7316C314.831 82.9631 316.178 81.7739 315.79 81.3172ZM99.9395 82.2052C100.555 81.6269 99.1387 79.8494 98.4893 81.2224C98.1559 81.9255 99.8358 82.3021 99.9395 82.2052ZM135.763 81.2935C134.951 81.7795 136.964 82.6452 137.245 81.7671C136.871 81.6966 136.052 81.1214 135.763 81.2935ZM163.395 80.4054C160.836 77.8727 162.23 82.493 162.684 82.0868C162.748 82.0288 163.458 80.4649 163.395 80.4054ZM16.9706 81.027C16.6083 81.3789 17.9589 82.6537 18.1337 81.8145C18.2417 81.2893 17.2023 80.8027 16.9706 81.027ZM201.931 82.0513C201.823 82.0594 201.716 82.0678 201.61 82.075C201.69 82.0337 201.794 82.0202 201.931 82.0513ZM128.391 77.9009C130.193 81.4768 130.004 78.7207 130.16 78.7357C130.499 78.7742 131.285 79.7411 131.922 79.5824C131.192 79.985 130.462 80.3876 129.732 80.7902C130.309 81.0484 135.319 82.3647 135.424 81.7849C135.574 80.9591 133.998 81.2182 133.952 81.1454C133.886 81.0418 133.639 78.7461 133.493 78.6588C133.253 78.5193 129.063 78.4716 128.391 77.9009ZM158.044 80.8021C158.455 81.075 158.572 81.9845 158.763 81.7671C158.828 81.6927 158.839 80.8252 159.061 80.6007C158.722 80.6679 158.383 80.735 158.044 80.8021ZM125.166 81.1158C124.656 80.0557 126.942 80.4583 127.015 80.5771C127.406 81.2957 125.582 81.9819 125.166 81.1158ZM144.567 80.9619C144.484 80.9 142.728 80.569 142.742 81.1573C143.207 81.6057 145.554 81.7364 144.567 80.9619ZM159.336 80.5415C159.953 80.6427 161.119 81.5164 160.985 80.21C160.984 80.21 160.983 80.21 160.982 80.21C160.434 80.3205 159.885 80.431 159.336 80.5415ZM102.046 79.4462C100.903 77.3656 101.445 79.9946 102.457 80.6659C102.763 79.7318 102.234 79.7848 102.046 79.4462ZM98.3877 77.895C98.0697 77.5206 94.7922 77.9308 95.2923 79.0318C95.4701 79.4241 97.3547 78.4346 97.4415 78.5108C97.5731 78.6236 96.9719 79.8415 97.9771 79.6002C97.9183 79.1875 98.4966 78.0201 98.3877 77.895ZM101.1 78.1141C99.9639 76.5318 99.7087 79.4501 100.563 79.4581C100.897 79.4632 101.262 78.3424 101.1 78.1141ZM105.74 78.3627C105.332 78.086 104.243 77.6823 103.492 78.6529C104.497 78.7357 105.501 78.8186 106.505 78.9015C106.621 78.3517 106.098 78.606 105.738 78.3627C105.738 78.3627 105.739 78.3627 105.74 78.3627ZM358.674 73.9874C357.771 73.1598 359.851 72.8427 359.939 73.046C360.2 73.721 359.077 74.357 358.674 73.9874ZM9.92007 54.5144C9.66926 54.1845 9.5053 53.0991 8.95327 53.6678C9.50854 54.469 10.0638 55.2703 10.6191 56.0715C11.0506 54.2356 10.1942 54.8783 9.92007 54.5144ZM7.7997 47.8063C7.87814 47.7619 7.44967 44.9388 8.463 46.8235C9.14767 48.0961 5.42444 49.3364 4.75236 48.0846C5.49497 47.5029 7.12451 48.1688 7.7997 47.8063ZM1.27793 35.5861C1.235 35.361 2.64954 35.0308 2.81327 35.1895C3.67299 36.0261 1.51019 36.7923 1.27793 35.5861ZM5.79057 36.1249C5.12718 35.5767 6.5968 35.2233 7.03478 35.5388C7.07726 36.0643 5.89306 36.2048 5.79057 36.1249ZM349.533 33.0995C348.815 31.1808 348.173 35.3112 349.278 34.479C349.33 34.4399 349.564 33.1935 349.533 33.0995ZM2.66084 32.7383C3.32423 33.2866 1.85461 33.64 1.41663 33.3245C1.3759 32.7996 2.55983 32.6582 2.66084 32.7383ZM349.028 28.5288C348.074 27.1481 348.41 31.782 348.529 31.9687C349.02 32.7061 350.703 30.8874 351.046 30.4352C348.528 31.1306 349.477 29.1794 349.028 28.5288ZM344.63 31.3115C343.746 31.8058 346.006 32.7513 346.438 31.4595C345.998 31.5213 344.882 31.1686 344.63 31.3115ZM339.262 29.8254C338.787 29.6594 337.372 29.2621 337.135 29.9912C337.654 29.8592 339.061 30.5756 339.262 29.8254ZM338.186 27.6407C337.442 26.65 337.264 29.5365 338.121 28.6768C338.154 28.6435 338.213 27.6958 338.186 27.6407ZM334.007 26.5987C333.519 25.4507 332.962 28.2462 333.753 28.3216C333.987 28.3388 334.058 26.7303 334.007 26.5987ZM347.834 23.5436C347.136 23.0507 346.236 25.0526 347.727 25.2724C347.204 25.5783 346.68 25.8842 346.156 26.1901C348.109 27.3122 347.966 24.536 348.526 24.6508C349.31 24.8139 349.248 27.1048 349.091 27.8242C349.733 26.4207 352.463 26.3982 354.04 26.1309C352.654 25.5419 350.404 24.5207 349.036 24.1475C348.645 24.0395 348.266 24.6678 347.933 24.5975C347.399 24.4815 347.873 23.5768 347.837 23.5436C347.836 23.5436 347.835 23.5436 347.834 23.5436ZM328.513 26.5572C327.08 25.2568 327.986 28.0644 328.796 27.5637C328.831 27.5252 328.549 26.589 328.513 26.5572ZM0.760197 24.2067C2.67519 25.3802 1.28323 26.9355 5.28932 24.5738C3.60627 26.2458 5.19624 25.7762 4.86772 26.4506C4.60418 26.9842 3.61667 26.5423 4.19069 27.617C3.43619 26.4473 0.160532 26.7708 0.0144976 26.5809C0.0158709 26.5809 0.0172442 26.5809 0.0186174 26.5809C-0.0690924 26.4683 0.149127 23.8335 0.760197 24.2067ZM339.255 22.4838C338.777 19.0772 338.59 24.4842 337.65 21.6608C336.399 25.7608 341.106 21.6614 341.676 25.1244C336.564 24.722 345.054 28.5558 341.486 23.3719C344.426 25.2534 342.449 22.7299 342.903 22.0694C343.388 21.3657 345.051 22.1304 344.967 20.8616C344.966 20.8616 344.965 20.8616 344.964 20.8616C343.947 20.9504 342.93 21.0392 341.913 21.128C342.908 23.8651 340.83 23.0444 340.125 20.8142C339.835 21.3707 339.545 21.9273 339.255 22.4838ZM345.012 25.0534C344.912 24.9907 342.7 25.3743 342.842 25.9237C343.138 26.2741 346.278 25.854 345.012 25.0534ZM354.749 24.4554C353.955 24.4487 352.726 23.9147 352.293 24.9468C353.088 24.9537 354.316 25.488 354.749 24.4554ZM313.845 24.26C312.833 25.1069 315.95 25.3578 315.048 24.3547C315.004 24.3075 313.895 24.2205 313.845 24.26ZM336.952 22.9989C335.923 21.9578 336.409 25.2715 337.172 24.408C337.216 24.3571 337 23.0464 336.952 22.9989ZM2.31202 23.8041C2.38088 22.9922 5.15936 23.5625 5.65187 23.5554C5.37204 24.3101 2.23302 24.7348 2.31202 23.8041ZM356.147 21.4181C354.566 18.4988 352.421 21.8707 352.186 21.797C351.952 21.7219 352.319 20.4458 352.266 20.4116C352.144 20.34 349.654 20.4471 349.533 20.5359C349.447 20.6052 349.897 22.3985 349.383 22.9634C350.386 21.9444 354.94 22.5819 355.176 22.3832C355.359 22.2245 353.979 20.3413 356.144 21.4181C356.145 21.4181 356.146 21.4181 356.147 21.4181ZM351.599 21.4063C352.221 22.158 350.476 22.252 350.054 21.9746C349.115 21.3539 351.519 21.3172 351.599 21.4063ZM347.402 20.7135C347.202 20.5449 345.404 20.3918 345.251 21.2286C346.102 22.3142 347.854 21.1064 347.402 20.7135ZM327.39 20.826C326.923 20.9333 325.639 20.2902 325.565 21.0214C326.033 20.9148 327.317 21.5573 327.39 20.826ZM11.7919 17.4216C11.0159 16.8098 12.8137 16.5598 13.3382 16.8533C13.3667 17.3411 11.8579 17.4742 11.7919 17.4216ZM336.778 16.0066C336.501 15.7843 330.859 16.3392 330.068 16.6816C330.842 17.2346 336.434 17.2771 336.687 17.0072C336.761 16.9264 336.813 16.0416 336.778 16.0066ZM348.98 15.6692C349.497 14.5923 349.834 15.8838 349.9 15.9001C350.539 16.0648 351.866 15.8221 351.575 16.8592C350.446 16.4408 347.95 17.8076 348.98 15.6692ZM326.989 15.9534C325.073 16.353 328.753 17.4875 328.27 16.3619C328.239 16.2938 327.187 15.9114 326.989 15.9534ZM337.408 15.6928C337.831 14.8227 343.474 15.5731 344.38 15.5744C343.569 17.1794 342.915 15.9603 341.825 16.0422C341.531 16.0661 341.609 16.7338 341.578 16.7349C341.068 16.7658 341.449 15.9947 341.135 15.983C340.937 15.9777 336.814 16.9188 337.408 15.6928ZM349.275 14.9232C349.59 14.3059 353.114 14.0427 353.256 14.2068C354.317 15.4269 349.549 15.1381 349.275 14.9232ZM336.891 14.266C337.497 12.4007 340.3 13.6499 338.382 14.5798C338.199 14.6644 337.423 13.8558 336.891 14.266ZM327.194 14.1772C327.099 14.1223 325.102 13.7495 325.066 14.3429C325.355 14.5736 328.266 14.7805 327.194 14.1772ZM328.229 12.1701C328.181 12.1843 328.649 13.3273 327.713 13.1825C327.635 13.1689 327.489 11.8828 326.312 12.3536C326.073 12.4506 325.703 13.3013 325.73 13.3542C326.956 15.3724 330.647 11.507 328.229 12.1701ZM349.339 13.8811C349.149 13.3383 349.608 11.7271 350.021 12.5431C350.198 12.8954 349.867 13.8623 349.339 13.8811ZM320.86 13.6561C322.021 12.679 318.376 12.4943 318.19 12.7444C318.307 13.353 320.744 13.7516 320.86 13.6561ZM13.6087 9.87875C13.6078 9.87875 13.6069 9.87875 13.606 9.87875C14.5827 10.1002 13.9777 10.913 14.0235 10.9385C16.1039 12.1325 15.5521 10.2914 15.8774 10.0741C16.575 9.60424 16.4626 11.8431 17.6394 10.9149C15.6943 12.2856 17.4648 11.711 17.5199 12.5075C17.7379 15.758 14.9301 10.9855 13.9603 11.6668C13.8252 11.7611 14.8229 12.7985 14.4767 13.0937C13.351 14.0499 9.86091 9.03208 13.6087 9.87875ZM350.339 12.401C350.792 11.4462 354.229 12.3723 353.318 13.1588C353.171 13.2849 349.673 13.7926 350.339 12.401ZM189.787 10.9918C190.613 10.1656 188.699 9.1942 188.344 9.83733C188.168 10.1577 189.425 11.3545 189.787 10.9918ZM176.365 7.45723C175.383 7.62496 174.348 11.0707 175.57 10.536C175.699 10.4775 176.477 7.9352 176.365 7.45723ZM240.816 9.2275C239.791 7.99611 239.852 10.284 240.605 10.2518C240.87 10.2407 240.848 9.26647 240.816 9.2275ZM201.699 9.52353C201.597 9.44367 200.412 9.58976 200.455 10.1156C200.893 10.4311 202.363 10.0718 201.699 9.52353ZM241.142 8.90187C240.534 9.31422 241.58 10.969 242.323 9.35184C241.945 9.48449 241.204 8.85974 241.142 8.90187ZM334.773 9.20975C334.264 10.1492 332.824 9.86535 331.997 10.0268C331.908 8.80964 334.182 9.43042 334.773 9.20975ZM180.531 8.84266C179.602 9.70049 181.593 10.4028 181.41 9.26894C181.385 9.20735 180.568 8.80608 180.531 8.84266ZM273.882 8.77754C273.207 9.50359 275.352 10.48 274.761 9.20383C274.732 9.15179 273.919 8.73715 273.882 8.77754ZM283.247 9.19791C282.734 8.953 280.549 9.02834 281.4 9.73668C281.532 9.84553 283.208 9.86292 283.247 9.19791ZM15.9351 9.19788C15.659 7.94757 17.2616 8.24519 17.491 8.46372C17.5812 8.55461 16.2952 10.8246 15.9351 9.19788ZM234.16 9.03212C233.63 9.18855 232.254 8.89129 232.012 9.54722C232.661 9.41144 234.334 10.3388 234.16 9.03212ZM184.768 8.83674C183.959 7.4781 182.576 7.61219 182.918 9.38736C184.445 9.2684 182.729 7.79178 184.768 8.83674ZM244.557 7.43947C244.132 7.33583 243.806 9.04062 243.854 9.12093C244.315 9.88507 244.98 8.10276 244.557 7.43947ZM212.646 8.84266C212.621 8.11412 211.258 8.44479 211.44 8.91371C211.5 9.07113 212.666 9.43225 212.646 8.84266ZM316.92 8.7953C316.295 8.13033 318.203 7.48022 318.767 8.25653C319.042 9.37514 316.999 8.87169 316.92 8.7953ZM256.35 7.86576C256.413 6.78458 254.282 7.39586 255.122 8.29205C255.332 8.51629 256.327 8.22727 256.35 7.86576ZM276.747 6.56914C275.318 7.85846 281.319 8.7738 279.742 7.16713C279.63 7.05265 276.872 6.46026 276.747 6.56914ZM286.548 7.37435C286.302 7.23228 286.425 3.59922 287.445 5.00018C287.579 5.18186 286.952 6.14226 287.062 6.36192C287.126 6.48711 289.345 6.99735 289.447 6.91254C289.557 6.81623 289.428 5.6518 289.539 5.52119C289.665 5.37522 291.031 6.39811 291.746 6.40929C293.094 6.42847 293.24 5.45928 293.35 5.45606C293.672 5.44964 294.214 6.13779 294.866 6.13694C298.157 6.12921 303.189 5.30767 305.798 7.36251C303.476 6.53734 301.264 7.41284 298.955 7.68222C299.631 5.65917 295.557 9.24099 297.94 6.90662C296.842 7.41297 287.357 7.81791 286.551 7.37435C286.55 7.37435 286.549 7.37435 286.548 7.37435ZM172.491 6.43888C173.094 5.19843 170 5.47746 169.737 6.91253C170.146 7.11169 172.416 6.57947 172.491 6.43888ZM186.765 3.41344C187.052 3.19932 187.325 0.774644 188.832 2.00433C188.833 2.00433 188.834 2.00433 188.836 2.00433C189.276 2.36344 188.774 2.95425 188.855 3.16477C188.884 3.25073 190.258 4.45688 189.117 4.65085C187.377 4.94845 188.953 2.84704 188.025 2.82137C187.912 2.81939 186.156 4.13185 186.258 4.41994C186.268 4.4535 186.797 4.17586 186.884 4.29561C187.214 4.74574 187.053 5.50291 187.1 5.53894C187.252 5.63128 190.029 4.34134 190.433 5.4679C190.564 5.83117 186.006 6.66919 185.828 6.48033C185.716 6.36131 185.763 4.25957 185.647 4.05286C185.587 3.94991 183.753 4.73749 183.515 4.54428C183.446 4.48839 183.394 4.42815 183.355 4.3785C183.632 5.02875 181.972 4.98193 182.023 4.24825C182.052 3.95988 183.194 4.12679 183.235 4.1772C183.253 4.19854 183.269 4.22795 183.283 4.24825C183.047 3.4558 186.916 3.49154 186.081 2.3122C187.202 1.66614 185.922 4.04226 186.765 3.41344ZM192.156 2.11682C192.04 2.33785 191.925 2.55889 191.809 2.77993C193.772 2.23891 196.038 3.30295 198.3 3.29502C198.874 3.29462 198.214 1.9428 198.966 2.3122C199.569 2.60824 200.236 3.86211 199.909 4.14168C199.829 4.21143 198.601 3.39475 197.987 3.47856C196.174 3.72669 196.632 4.88596 196.526 4.91728C196.409 4.95023 195.268 4.13497 194.645 4.17128C193.078 4.26511 192.362 4.97685 190.221 4.04694C191.457 3.28291 190.78 1.62312 192.156 2.11682ZM265.349 4.58573C265.423 3.85605 266.708 4.50344 267.175 4.39627C267.102 5.12775 265.816 4.4785 265.349 4.58573ZM73.862 3.63841C73.4673 4.8358 76.4256 5.13229 75.646 4.13574C75.4734 3.91458 74.2337 3.64693 73.862 3.63841ZM87.1514 4.36665C87.5471 4.0356 85.9537 3.1735 85.9566 4.10022C85.959 4.3974 87.1004 4.4097 87.1514 4.36665ZM217.539 3.29503C217.614 3.25753 218.702 3.52422 218.736 3.58514C219.458 4.85654 215.875 4.1217 217.539 3.29503ZM103.307 2.89241C101.928 3.67725 106.079 4.01742 104.811 3.01675C104.747 2.96801 103.373 2.85427 103.307 2.89241ZM109.077 2.67335C108.747 2.71541 107.279 2.32573 107.259 2.69111C107.23 3.28058 108.911 3.68336 109.077 2.67335ZM244.844 2.91611C244.685 1.56696 246.621 2.58867 247.294 2.41878C247.454 3.76886 245.517 2.74573 244.844 2.91611ZM232.623 1.92144C240.786 0.857895 238.986 3.74042 232.137 2.57863C232.127 1.71311 232.108 1.98842 232.623 1.92144ZM243.075 2.0813C242.779 2.94561 241.852 2.68932 241.225 2.62008C241.338 2.01916 242.623 2.23664 243.075 2.0813ZM70.3395 1.78525C70.8515 0.693425 73.1184 2.03946 72.7153 2.48981C72.6215 2.58706 70.1516 2.38568 70.3395 1.78525ZM218.223 2.1405C218.033 0.828413 220.484 1.36362 220.671 1.65501C221.428 2.82707 218.421 1.85091 218.223 2.1405ZM256.429 1.76159C256.862 0.733845 258.091 1.26245 258.882 1.27609C258.522 2.15489 257.1 1.78008 256.429 1.76159ZM250.722 0.956379C250.771 0.916931 251.874 1.00972 251.923 1.05703C252.827 2.06084 249.708 1.80377 250.722 0.956379ZM12.2547 0.00905628C12.2914 -0.0240625 13.1265 0.0414697 13.1556 0.080104C13.9009 1.06683 11.3947 0.865208 12.2547 0.00905628Z" fill="white"/>
</svg>
